<svg width="339" height="187" viewBox="0 0 339 187" fill="none" xmlns="http://www.w3.org/2000/svg">
<g clip-path="url(#clip0_23_217)">
<path d="M142.747 187.749C221.584 187.749 285.494 184.42 285.494 180.314C285.494 176.208 221.584 172.88 142.747 172.88C63.91 172.88 0 176.208 0 180.314C0 184.42 63.91 187.749 142.747 187.749Z" fill="#F2F2F2"/>
<path d="M223.166 178.964H210.585V167.918H223.166V178.964ZM211.553 178.114H222.198V168.768H211.553V178.114Z" fill="#3F3D56"/>
<path d="M223.068 184.048C225.74 184.048 227.907 182.146 227.907 179.799C227.907 177.453 225.74 175.551 223.068 175.551C220.395 175.551 218.229 177.453 218.229 179.799C218.229 182.146 220.395 184.048 223.068 184.048Z" fill="#6C63FF"/>
<path opacity="0.1" d="M177.908 173.035C199.558 173.035 217.109 171.212 217.109 168.964C217.109 166.715 199.558 164.892 177.908 164.892C156.258 164.892 138.708 166.715 138.708 168.964C138.708 171.212 156.258 173.035 177.908 173.035Z" fill="black"/>
<path d="M177.908 169.704C220.999 169.704 255.932 135.388 255.932 93.0571C255.932 50.7262 220.999 16.4102 177.908 16.4102C134.817 16.4102 99.8848 50.7262 99.8848 93.0571C99.8848 135.388 134.817 169.704 177.908 169.704Z" fill="#3F3D56"/>
<path opacity="0.1" d="M242.74 93.0539C242.74 128.228 213.711 156.743 177.908 156.743C175.853 156.743 173.818 156.651 171.818 156.466C139.583 153.509 114.198 127.375 113.118 95.2016C113.092 94.4857 113.079 93.7698 113.079 93.0539C113.079 91.4459 113.14 89.8503 113.262 88.2674C115.752 55.3319 143.747 29.381 177.911 29.381C207.402 29.381 232.29 48.7222 240.153 75.1928C240.291 75.6683 240.429 76.1375 240.561 76.6256C241.041 78.41 241.447 80.2249 241.779 82.0702C242.419 85.6976 242.741 89.3724 242.74 93.0539Z" fill="black"/>
<path opacity="0.4" d="M242.741 93.0541C242.741 128.229 213.711 156.743 177.908 156.743C142.836 156.743 114.265 129.378 113.114 95.2017C120.506 95.4095 128.036 95.1702 135.021 92.8053C142.592 90.2451 149.074 85.3452 156.046 81.4688C174.776 71.0927 197.129 68.2996 218.526 70.3527C225.793 71.0487 233.329 72.4972 240.15 75.1613C241.873 80.9693 242.745 86.9887 242.741 93.0383V93.0541Z" fill="#585EC7"/>
<path opacity="0.4" d="M242.74 93.054C242.74 128.229 213.711 156.743 177.908 156.743C175.853 156.743 173.818 156.652 171.817 156.466C161.305 151.365 152.396 143.56 146.042 133.88C139.687 124.2 136.123 113.008 135.729 101.497C143.121 101.704 150.651 101.465 157.636 99.1002C165.211 96.54 171.689 91.6401 178.661 87.7637C197.221 77.4789 219.336 74.648 240.557 76.5941C241.038 78.3785 241.444 80.1934 241.775 82.0387C242.419 85.6764 242.741 89.3618 242.74 93.054Z" fill="#585EC7"/>
<path d="M242.74 97.7685C242.74 132.943 213.711 161.458 177.908 161.458C142.105 161.458 113.076 132.943 113.076 97.7685C113.076 96.1604 113.137 94.5649 113.258 92.982C118.371 93.5956 123.361 94.9597 128.062 97.0285C135.665 100.382 142.429 105.531 150.337 108.116C156.107 110.006 162.242 110.456 168.314 110.635C175.895 110.872 183.636 110.683 190.807 108.255C198.379 105.695 204.857 100.795 211.832 96.934C221.106 91.7948 231.277 88.5167 241.775 86.7658C242.418 90.3994 242.741 94.0806 242.74 97.7685Z" fill="#585EC7"/>
<path d="M61.1248 177.52C62.6827 174.685 60.9165 171.221 58.8809 168.702C56.8454 166.183 54.3932 163.554 54.4317 160.338C54.5086 155.719 59.4996 152.989 63.4905 150.539C66.4516 148.722 69.1826 146.567 71.6261 144.118C72.607 143.135 73.5495 142.084 74.1264 140.83C74.9503 139.026 74.9278 136.97 74.8765 134.989C74.7034 128.399 74.3711 121.813 73.8796 115.232" stroke="#3F3D56" stroke-width="4" stroke-miterlimit="10"/>
<path d="M81.4649 114.87C81.4078 113.663 81.0422 112.49 80.4019 111.458C79.7616 110.427 78.8671 109.571 77.801 108.969L76.1598 112.159L76.2079 108.295C74.7164 107.864 73.1241 107.91 71.6609 108.426C70.1976 108.942 68.9392 109.901 68.0671 111.166C67.1951 112.43 66.7546 113.934 66.8092 115.46C66.8639 116.986 67.4108 118.456 68.3711 119.657C69.3314 120.858 70.6553 121.729 72.1519 122.142C73.6484 122.556 75.24 122.492 76.697 121.959C78.154 121.427 79.401 120.453 80.258 119.179C81.115 117.904 81.5376 116.395 81.4649 114.87Z" fill="#009BE5"/>
<path d="M68.3828 163.641C67.6126 165.11 66.3519 166.274 64.8119 166.938C63.2719 167.602 61.5463 167.726 59.9244 167.289C58.3026 166.851 56.8832 165.879 55.9041 164.536C54.9251 163.193 54.4459 161.56 54.5471 159.91C54.6482 158.261 55.3234 156.696 56.4595 155.478C57.5956 154.26 59.1235 153.462 60.787 153.219C62.4505 152.977 64.1485 153.303 65.5963 154.144C67.044 154.984 68.1535 156.289 68.7386 157.838L64.1545 161.5L69.197 160.354C69.1969 161.498 68.9176 162.625 68.3828 163.641Z" fill="#009BE5"/>
<path d="M64.7606 149.651C62.9595 149.736 61.1894 149.167 59.7884 148.052C58.3874 146.936 57.4538 145.353 57.1659 143.604C56.878 141.856 57.256 140.064 58.2277 138.572C59.1993 137.08 60.6966 135.991 62.4334 135.515L62.3949 138.484L64.0554 135.253H64.0747C65.0489 135.189 66.0265 135.315 66.9502 135.627C67.8739 135.938 68.725 136.427 69.4538 137.065C70.1826 137.703 70.7744 138.478 71.1944 139.344C71.6145 140.21 71.8544 141.15 71.9 142.108C71.9457 143.066 71.7962 144.024 71.4603 144.924C71.1245 145.825 70.609 146.651 69.944 147.353C69.2791 148.056 68.4782 148.621 67.5881 149.015C66.6981 149.41 65.7368 149.626 64.7606 149.651Z" fill="#009BE5"/>
<path d="M82.5672 138.012C81.4322 138.065 80.3001 137.858 79.2602 137.408C78.2204 136.958 77.3012 136.277 76.5751 135.418C75.8489 134.559 75.3357 133.547 75.0759 132.46C74.8161 131.374 74.8167 130.242 75.0778 129.156C75.3388 128.07 75.8532 127.058 76.5803 126.2C77.3074 125.342 78.2273 124.662 79.2677 124.213C80.3081 123.764 81.4404 123.558 82.5754 123.612C83.7104 123.667 84.8171 123.979 85.8082 124.525L84.5259 128.014L87.1931 125.495C87.9014 126.13 88.4753 126.896 88.8818 127.749C89.2883 128.602 89.5195 129.526 89.5622 130.467C89.5989 131.139 89.5374 131.812 89.3795 132.467C89.0128 133.993 88.1492 135.361 86.9198 136.361C85.6905 137.362 84.1623 137.942 82.5672 138.012Z" fill="#009BE5"/>
<path opacity="0.1" d="M80.4773 116.791C78.7848 116.973 77.1371 117.49 75.4382 117.594C73.7393 117.698 71.8737 117.298 70.7998 116C70.2196 115.301 69.9311 114.426 69.4407 113.654C68.9775 112.945 68.3433 112.359 67.5943 111.948C67.1196 112.862 66.849 113.865 66.8008 114.89C66.7525 115.915 66.9276 116.939 67.3143 117.892C67.701 118.845 68.2905 119.706 69.0433 120.418C69.7961 121.129 70.6949 121.675 71.6795 122.017C72.6641 122.36 73.7119 122.492 74.7528 122.405C75.7936 122.318 76.8036 122.014 77.715 121.513C78.6265 121.011 79.4185 120.324 80.038 119.498C80.6576 118.672 81.0904 117.725 81.3075 116.722C81.0447 116.744 80.753 116.762 80.4773 116.791Z" fill="black"/>
<path opacity="0.1" d="M82.5674 138.012C81.3054 138.066 80.0504 137.8 78.9237 137.239C77.7971 136.677 76.8369 135.84 76.1359 134.808C75.435 133.775 75.017 132.582 74.9224 131.345C74.8277 130.107 75.0597 128.867 75.5957 127.743C76.1795 128.127 76.6806 128.62 77.0702 129.195C77.5927 129.969 77.91 130.864 78.5254 131.575C79.6665 132.895 81.6186 133.326 83.388 133.247C85.1574 133.169 86.8658 132.674 88.632 132.517C88.8756 132.495 89.1224 132.479 89.3692 132.473C89.0018 133.997 88.1393 135.362 86.9121 136.361C85.6849 137.36 84.1597 137.94 82.5674 138.012Z" fill="black"/>
<path opacity="0.1" d="M64.7607 149.651C63.5075 149.711 62.2594 149.455 61.1358 148.907C60.0122 148.358 59.0507 147.535 58.3431 146.517C57.6356 145.499 57.2058 144.32 57.0947 143.092C56.9836 141.864 57.1951 140.629 57.7088 139.504C58.3119 139.896 58.8375 140.392 59.2602 140.969C59.8276 141.759 60.1834 142.669 60.8629 143.4C62.1002 144.754 64.1805 145.229 66.0557 145.185C67.8731 145.148 69.6201 144.71 71.428 144.574C70.9827 145.991 70.1037 147.239 68.9107 148.147C67.7176 149.056 66.2684 149.581 64.7607 149.651Z" fill="black"/>
<path opacity="0.1" d="M68.3822 163.642C67.5212 165.278 66.0557 166.528 64.2865 167.135C62.5172 167.743 60.5782 167.663 58.8674 166.911C57.1566 166.158 55.8036 164.791 55.0861 163.09C54.3685 161.389 54.3408 159.483 55.0086 157.762C55.61 158.152 56.15 158.626 56.6114 159.17C57.3102 160.007 57.7685 160.952 58.5763 161.73C60.0765 163.179 62.4968 163.774 64.6669 163.831C65.908 163.839 67.1485 163.776 68.3822 163.642Z" fill="black"/>
<path d="M50.0665 174.262C50.0665 174.262 55.8555 174.086 57.5993 172.867C59.3431 171.648 66.504 170.187 66.9367 172.146C67.3695 174.105 75.6363 181.88 69.1004 181.934C62.5645 181.988 53.9131 180.932 52.1725 179.89C50.432 178.848 50.0665 174.262 50.0665 174.262Z" fill="#656380"/>
<path opacity="0.2" d="M69.2192 181.255C62.6833 181.305 54.0317 180.253 52.2911 179.211C50.9641 178.417 50.4352 175.57 50.2589 174.257H50.0665C50.0665 174.257 50.432 178.842 52.1725 179.885C53.9131 180.927 62.5647 181.979 69.1006 181.929C70.9886 181.913 71.6394 181.255 71.6041 180.278C71.3413 180.874 70.6232 181.242 69.2192 181.255Z" fill="black"/>
<path d="M93.8625 183.565C92.8464 181.717 94.0004 179.453 95.3243 177.806C96.6481 176.159 98.2637 174.443 98.2285 172.342C98.1804 169.325 94.9204 167.543 92.3143 165.943C90.3806 164.757 88.5976 163.349 87.0027 161.749C86.3349 161.134 85.7826 160.408 85.3711 159.604C84.8326 158.424 84.8486 157.085 84.8839 155.791C84.9971 151.483 85.2108 147.18 85.525 142.88" stroke="#3F3D56" stroke-width="4" stroke-miterlimit="10"/>
<path d="M80.5786 142.628C80.6161 141.842 80.8542 141.077 81.2709 140.405C81.6876 139.733 82.2695 139.174 82.9633 138.78L84.0339 140.865L84.0018 138.345C84.9765 138.061 86.0179 138.089 86.9755 138.425C87.933 138.761 88.757 139.387 89.3283 140.213C89.8997 141.039 90.1887 142.023 90.1537 143.021C90.1186 144.019 89.7613 144.981 89.1334 145.766C88.5054 146.552 87.6395 147.121 86.6606 147.391C85.6818 147.661 84.6409 147.618 83.6885 147.269C82.736 146.92 81.9213 146.282 81.3623 145.447C80.8032 144.613 80.5288 143.626 80.5786 142.628Z" fill="#009BE5"/>
<path d="M89.1214 174.487C89.6045 175.409 90.3843 176.149 91.3396 176.591C92.2949 177.032 93.372 177.152 94.4036 176.93C95.4351 176.709 96.3632 176.158 97.0434 175.365C97.7236 174.572 98.1179 173.58 98.1649 172.544C98.1959 171.893 98.0866 171.243 97.8443 170.636C97.4968 169.74 96.8792 168.97 96.074 168.428C95.2688 167.887 94.3144 167.599 93.3385 167.605C92.3626 167.61 91.4116 167.908 90.6127 168.459C89.8139 169.01 89.2052 169.787 88.8681 170.686L91.8624 173.079L88.57 172.33C88.572 173.082 88.7613 173.823 89.1214 174.487Z" fill="#009BE5"/>
<path d="M91.4849 165.351C92.7531 165.405 93.9915 164.964 94.93 164.125C95.8686 163.285 96.4313 162.116 96.4952 160.87C96.534 160.133 96.3922 159.398 96.0817 158.726C95.794 158.097 95.3697 157.538 94.8386 157.087C94.3076 156.637 93.6826 156.306 93.0076 156.118L93.03 158.058L91.9401 155.948C90.6725 155.895 89.435 156.336 88.4971 157.176C87.5592 158.015 86.997 159.185 86.933 160.429C86.9044 160.972 86.9739 161.516 87.1382 162.035C87.4302 162.959 88.0036 163.772 88.7809 164.365C89.5582 164.958 90.5021 165.302 91.4849 165.351Z" fill="#009BE5"/>
<path d="M79.8575 157.743C81.1259 157.797 82.3644 157.356 83.3032 156.517C84.2419 155.678 84.8046 154.508 84.8686 153.262C84.9033 152.425 84.7106 151.594 84.3104 150.854C83.9102 150.114 83.3168 149.492 82.5911 149.052C81.8654 148.612 81.0335 148.369 80.1807 148.348C79.328 148.328 78.485 148.531 77.7383 148.936L78.5847 151.216L76.8438 149.572C76.1465 150.2 75.6542 151.017 75.4288 151.92C75.2034 152.822 75.2552 153.77 75.5774 154.644C75.8997 155.518 76.4782 156.279 77.2398 156.83C78.0015 157.382 78.9123 157.699 79.8575 157.743Z" fill="#009BE5"/>
<path opacity="0.1" d="M81.2221 143.888C82.325 144.007 83.4022 144.344 84.5115 144.414C85.6208 144.483 86.8391 144.218 87.5412 143.371C87.9195 142.915 88.1087 142.338 88.4293 141.841C88.7325 141.377 89.1463 140.994 89.6347 140.723C90.0087 141.457 90.1814 142.274 90.1358 143.094C90.0903 143.913 89.828 144.707 89.3749 145.397C88.9219 146.087 88.2936 146.649 87.5521 147.027C86.8106 147.406 85.9814 147.588 85.1463 147.556C84.0908 147.506 83.0818 147.115 82.2751 146.444C81.4684 145.774 80.9091 144.861 80.6835 143.847C80.8598 143.859 81.0394 143.888 81.2221 143.888Z" fill="black"/>
<path opacity="0.1" d="M79.8575 157.743C81.1256 157.797 82.3641 157.356 83.3026 156.517C84.2412 155.677 84.8039 154.507 84.8679 153.262C84.9065 152.492 84.7501 151.725 84.4127 151.029C84.0327 151.28 83.7061 151.601 83.451 151.974C83.108 152.478 82.9028 153.064 82.4893 153.53C81.7424 154.389 80.4666 154.673 79.3126 154.619C78.1585 154.566 77.0398 154.248 75.8858 154.144C75.7287 154.128 75.5652 154.119 75.4049 154.115C75.643 155.114 76.2069 156.01 77.0107 156.664C77.8145 157.319 78.8142 157.698 79.8575 157.743Z" fill="black"/>
<path opacity="0.1" d="M91.4851 165.351C92.7533 165.405 93.9917 164.964 94.9303 164.125C95.869 163.285 96.4316 162.115 96.4956 160.87C96.5343 160.133 96.3925 159.397 96.082 158.725C95.6885 158.977 95.3452 159.297 95.0691 159.67C94.6972 160.187 94.4664 160.779 94.0304 161.245C93.2226 162.13 91.8634 162.441 90.6388 162.413C89.4142 162.385 88.3115 162.098 87.1318 162.013C87.4203 162.942 87.9931 163.76 88.772 164.357C89.5509 164.955 90.4983 165.302 91.4851 165.351Z" fill="black"/>
<path opacity="0.1" d="M89.1217 174.487C89.6047 175.409 90.3845 176.149 91.3398 176.591C92.295 177.032 93.3722 177.152 94.4037 176.93C95.4352 176.709 96.3632 176.158 97.0434 175.365C97.7236 174.572 98.1179 173.58 98.1649 172.544C98.1958 171.893 98.0866 171.243 97.8443 170.636C97.4494 170.891 97.095 171.202 96.7929 171.558C96.3377 172.103 96.0363 172.72 95.5106 173.23C94.5297 174.175 92.946 174.562 91.542 174.6C90.7336 174.61 89.9254 174.572 89.1217 174.487Z" fill="black"/>
<path d="M101.084 181.428C101.084 181.428 97.3019 181.311 96.164 180.514C95.0261 179.718 90.3462 178.767 90.0737 180.045C89.8013 181.324 84.3938 186.403 88.6602 186.434C92.9266 186.466 98.5777 185.783 99.7156 185.102C100.854 184.422 101.084 181.428 101.084 181.428Z" fill="#656380"/>
<path opacity="0.2" d="M88.5737 185.991C92.8433 186.026 98.5104 185.339 99.6291 184.659C100.498 184.139 100.841 182.278 100.956 181.422H101.084C101.084 181.422 100.844 184.416 99.706 185.097C98.5681 185.777 92.9202 186.463 88.6507 186.429C87.4198 186.429 86.9935 185.991 87.0159 185.352C87.189 185.742 87.657 185.985 88.5737 185.991Z" fill="black"/>
<path opacity="0.6" d="M213.355 145.93C220.626 147.36 224.597 137.674 224.597 137.674C223.748 138.933 222.994 138.804 219.01 138.521C215.025 138.237 211.448 140.983 211.448 140.983C205.707 125.056 191.416 134.37 191.416 134.37C192.022 137.198 193.553 139.753 195.776 141.645C194.952 142.482 193.946 143.704 194.256 144.416C194.615 145.25 196.972 144.076 198.286 143.339C198.536 143.474 198.789 143.6 199.042 143.72C199.142 144.91 199.331 148.006 198.699 149.552C198.699 149.552 201.665 150.462 203.392 145.168C205.324 145.59 207.303 145.768 209.281 145.697C209.281 145.697 205.71 153.611 207.935 154.974C210.159 156.338 211.32 160.091 211.32 160.091C217.619 154.691 213.355 145.93 213.355 145.93Z" fill="#FE7D1E"/>
<path opacity="0.6" d="M167.971 130.453C175.264 129.13 175.296 118.688 175.296 118.688C174.975 120.18 174.228 120.325 170.43 121.522C166.631 122.719 164.339 126.576 164.339 126.576C152.988 113.863 143.231 127.707 143.231 127.707C144.86 130.112 147.245 131.927 150.023 132.874C149.574 133.951 149.1 135.453 149.658 136.004C150.299 136.634 152.052 134.697 152.995 133.535C153.277 133.567 153.559 133.595 153.841 133.614C154.383 134.682 155.726 137.487 155.723 139.153C155.723 139.153 158.819 138.92 158.428 133.375C160.391 133.06 162.306 132.5 164.124 131.709C164.124 131.709 163.804 140.359 166.368 140.813C168.933 141.266 171.446 144.333 171.446 144.333C175.254 137.037 167.971 130.453 167.971 130.453Z" fill="#FE7D1E"/>
<path opacity="0.3" d="M179.498 48.855C183.014 48.855 185.865 46.0085 185.865 42.4971C185.865 38.9858 183.014 36.1393 179.498 36.1393C175.981 36.1393 173.131 38.9858 173.131 42.4971C173.131 46.0085 175.981 48.855 179.498 48.855Z" fill="#6C63FF"/>
<path d="M179.498 45.5088C181.164 45.5088 182.514 44.1604 182.514 42.4971C182.514 40.8339 181.164 39.4855 179.498 39.4855C177.832 39.4855 176.482 40.8339 176.482 42.4971C176.482 44.1604 177.832 45.5088 179.498 45.5088Z" fill="#2F2E41"/>
<path d="M179.665 42.6643H178.995V8.19826H312.034V8.86764H179.665V42.6643Z" fill="#2F2E41"/>
<path d="M320.244 11.7118C321.909 11.7118 323.26 10.3635 323.26 8.7002C323.26 7.03694 321.909 5.68859 320.244 5.68859C318.578 5.68859 317.228 7.03694 317.228 8.7002C317.228 10.3635 318.578 11.7118 320.244 11.7118Z" fill="#6C63FF"/>
<path d="M320.244 17.4004C318.52 17.4004 316.836 16.8901 315.403 15.9342C313.97 14.9782 312.853 13.6194 312.194 12.0296C311.534 10.4399 311.362 8.69055 311.698 7.00288C312.034 5.31521 312.864 3.76498 314.083 2.54823C315.301 1.33149 316.854 0.502875 318.544 0.167176C320.234 -0.168524 321.986 0.00377028 323.578 0.662268C325.17 1.32077 326.531 2.43589 327.488 3.86663C328.446 5.29737 328.957 6.97947 328.957 8.70021C328.954 11.0069 328.035 13.2183 326.402 14.8493C324.768 16.4804 322.554 17.3978 320.244 17.4004ZM320.244 0.669245C318.653 0.669244 317.098 1.14026 315.775 2.02271C314.453 2.90516 313.422 4.15942 312.813 5.62688C312.204 7.09435 312.045 8.70911 312.355 10.267C312.666 11.8248 313.432 13.2558 314.557 14.3789C315.681 15.5021 317.114 16.267 318.675 16.5768C320.235 16.8867 321.852 16.7277 323.322 16.1198C324.791 15.512 326.047 14.4826 326.931 13.162C327.815 11.8413 328.286 10.2886 328.286 8.7002C328.284 6.571 327.436 4.52972 325.928 3.02416C324.42 1.51859 322.376 0.671693 320.244 0.669256V0.669245Z" fill="#2F2E41"/>
<path d="M338.675 24.4275H301.813V26.7698H338.675V24.4275Z" fill="#2F2E41"/>
<path d="M338.675 31.12H301.813V33.4623H338.675V31.12Z" fill="#2F2E41"/>
<path d="M338.675 37.8124H301.813V40.1548H338.675V37.8124Z" fill="#2F2E41"/>
<path opacity="0.3" d="M132.182 57.7791C135.699 57.7791 138.549 54.9326 138.549 51.4213C138.549 47.9099 135.699 45.0634 132.182 45.0634C128.666 45.0634 125.815 47.9099 125.815 51.4213C125.815 54.9326 128.666 57.7791 132.182 57.7791Z" fill="#6C63FF"/>
<path d="M132.182 54.4329C133.848 54.4329 135.198 53.0845 135.198 51.4213C135.198 49.758 133.848 48.4097 132.182 48.4097C130.517 48.4097 129.166 49.758 129.166 51.4213C129.166 53.0845 130.517 54.4329 132.182 54.4329Z" fill="#2F2E41"/>
<path d="M38.6869 18.9628C40.3526 18.9628 41.7029 17.6145 41.7029 15.9512C41.7029 14.288 40.3526 12.9396 38.6869 12.9396C37.0212 12.9396 35.6709 14.288 35.6709 15.9512C35.6709 17.6145 37.0212 18.9628 38.6869 18.9628Z" fill="#6C63FF"/>
<path d="M38.6869 24.6514C36.9637 24.6514 35.2791 24.1412 33.8463 23.1852C32.4135 22.2292 31.2967 20.8704 30.6373 19.2806C29.9778 17.6909 29.8053 15.9416 30.1415 14.2539C30.4777 12.5662 31.3075 11.016 32.526 9.79925C33.7445 8.58251 35.297 7.7539 36.9871 7.4182C38.6772 7.0825 40.4291 7.25479 42.0212 7.91329C43.6132 8.57179 44.974 9.68691 45.9314 11.1177C46.8888 12.5484 47.3998 14.2305 47.3998 15.9512C47.3972 18.2579 46.4783 20.4693 44.8449 22.1003C43.2115 23.7313 40.9969 24.6488 38.6869 24.6514ZM38.6869 7.92028C37.0962 7.92028 35.5413 8.39128 34.2187 9.27373C32.8961 10.1562 31.8652 11.4104 31.2565 12.8779C30.6478 14.3454 30.4885 15.9601 30.7988 17.518C31.1092 19.0758 31.8751 20.5068 32.9999 21.63C34.1247 22.7531 35.5578 23.518 37.1179 23.8279C38.678 24.1377 40.2951 23.9787 41.7647 23.3709C43.2343 22.763 44.4904 21.7337 45.3741 20.413C46.2579 19.0923 46.7295 17.5396 46.7295 15.9512C46.7271 13.822 45.879 11.7808 44.3712 10.2752C42.8635 8.76963 40.8192 7.92274 38.6869 7.9203V7.92028Z" fill="#2F2E41"/>
<path d="M132.518 51.4214H131.847V17.6191L47.0595 16.2857L47.0698 15.6167L132.518 16.9604V51.4214Z" fill="#2F2E41"/>
<path d="M57.1179 32.0131H20.2559V34.3555H57.1179V32.0131Z" fill="#2F2E41"/>
<path d="M57.1179 38.7056H20.2559V41.048H57.1179V38.7056Z" fill="#2F2E41"/>
<path d="M57.1179 45.398H20.2559V47.7404H57.1179V45.398Z" fill="#2F2E41"/>
<path opacity="0.3" d="M181.409 115.375C184.925 115.375 187.776 112.528 187.776 109.017C187.776 105.506 184.925 102.659 181.409 102.659C177.892 102.659 175.042 105.506 175.042 109.017C175.042 112.528 177.892 115.375 181.409 115.375Z" fill="#6C63FF"/>
<path d="M181.409 112.363C183.075 112.363 184.425 111.015 184.425 109.352C184.425 107.688 183.075 106.34 181.409 106.34C179.743 106.34 178.393 107.688 178.393 109.352C178.393 111.015 179.743 112.363 181.409 112.363Z" fill="#2F2E41"/>
<path d="M285.628 146.495C287.293 146.495 288.644 145.146 288.644 143.483C288.644 141.82 287.293 140.472 285.628 140.472C283.962 140.472 282.612 141.82 282.612 143.483C282.612 145.146 283.962 146.495 285.628 146.495Z" fill="#6C63FF"/>
<path d="M285.628 152.183C283.904 152.183 282.22 151.673 280.787 150.717C279.354 149.761 278.237 148.402 277.578 146.813C276.919 145.223 276.746 143.474 277.082 141.786C277.418 140.098 278.248 138.548 279.467 137.331C280.685 136.114 282.238 135.286 283.928 134.95C285.618 134.614 287.37 134.787 288.962 135.445C290.554 136.104 291.915 137.219 292.872 138.65C293.83 140.08 294.341 141.762 294.341 143.483C294.338 145.79 293.419 148.001 291.786 149.632C290.152 151.263 287.938 152.181 285.628 152.183ZM285.628 135.452C284.037 135.452 282.482 135.923 281.159 136.806C279.837 137.688 278.806 138.942 278.197 140.41C277.588 141.877 277.429 143.492 277.74 145.05C278.05 146.608 278.816 148.039 279.941 149.162C281.065 150.285 282.498 151.05 284.059 151.36C285.619 151.67 287.236 151.511 288.705 150.903C290.175 150.295 291.431 149.266 292.315 147.945C293.199 146.624 293.67 145.072 293.67 143.483C293.668 141.354 292.82 139.313 291.312 137.807C289.804 136.302 287.76 135.455 285.628 135.452Z" fill="#2F2E41"/>
<path d="M277.25 143.818L181.074 143.818V109.352H181.744L181.744 143.149L277.25 143.149V143.818Z" fill="#2F2E41"/>
<path d="M304.059 159.21H267.197V161.553H304.059V159.21Z" fill="#2F2E41"/>
<path d="M304.059 165.903H267.197V168.245H304.059V165.903Z" fill="#2F2E41"/>
<path d="M304.059 172.595H267.197V174.938H304.059V172.595Z" fill="#2F2E41"/>
</g>
<defs>
<clipPath id="clip0_23_217">
<rect width="339" height="187" fill="white"/>
</clipPath>
</defs>
</svg>
